<?xml version="1.0" encoding="UTF-8" standalone="no"?>
<svg
   xmlns:dc="http://purl.org/dc/elements/1.1/"
   xmlns:cc="http://creativecommons.org/ns#"
   xmlns:rdf="http://www.w3.org/1999/02/22-rdf-syntax-ns#"
   xmlns:svg="http://www.w3.org/2000/svg"
   xmlns="http://www.w3.org/2000/svg"
   xmlns:sodipodi="http://sodipodi.sourceforge.net/DTD/sodipodi-0.dtd"
   xmlns:inkscape="http://www.inkscape.org/namespaces/inkscape"
   width="297mm"
   height="210mm"
   viewBox="0 0 297.00001 210"
   version="1.1"
   id="svg4192"
   inkscape:version="0.91 r13725"
   sodipodi:docname="template.svg">
  <metadata
     id="metadata4208">
    <rdf:RDF>
      <cc:Work
         rdf:about="">
        <dc:format>image/svg+xml</dc:format>
        <dc:type
           rdf:resource="http://purl.org/dc/dcmitype/StillImage" />
        <dc:title></dc:title>
      </cc:Work>
    </rdf:RDF>
  </metadata>
  <defs
     id="defs4206" />
  <sodipodi:namedview
     pagecolor="#ffffff"
     bordercolor="#666666"
     borderopacity="1"
     objecttolerance="10"
     gridtolerance="10"
     guidetolerance="10"
     inkscape:pageopacity="0"
     inkscape:pageshadow="2"
     inkscape:window-width="1440"
     inkscape:window-height="788"
     id="namedview4204"
     showgrid="false"
     inkscape:zoom="0.45113335"
     inkscape:cx="658.44105"
     inkscape:cy="239.43311"
     inkscape:window-x="0"
     inkscape:window-y="1"
     inkscape:window-maximized="1"
     inkscape:current-layer="svg4192"
     inkscape:document-units="mm" />
  <desc
     id="desc4194">Output from Flights of Ideas SVG Sketchup Plugin</desc>
  <path
     id="face0-cut"
     style="fill:none;stroke:#0000ff;stroke-width:1;stroke-linecap:round;stroke-linejoin:round;stroke-miterlimit:4;stroke-dasharray:none"
     d="m 250.35136,92.329902 15,2e-6 0,-495.525624 -234.999999,0 0,459.525624 25,0 8.661781,31.18241 0.227489,0.6749 0.299111,0.64635 0.367239,0.610219 0.431061,0.566951 0.48983,0.51702 0.54284,0.46104 0.58951,0.39965 0.629259,0.33358 0.661639,0.263586 0.686257,0.190508 0.702829,0.115211 0.711162,0.0386 65.318412,-2e-6 0.70958,-0.0387 0.70115,-0.11567 0.6844,-0.191269 0.65952,-0.264592 0.62684,-0.334768 0.58669,-0.40098 0.53958,-0.46242 0.48607,-0.518381 0.4268,-0.568189 0.36245,-0.611239 0.2938,-0.647051 0.2217,-0.67515 8.38305,-31.171619 85,-2e-6 8.66178,31.182411 0.22748,0.674898 0.29913,0.646352 0.36722,0.610219 0.43106,0.56695 0.48984,0.517021 0.54284,0.461041 0.58951,0.399649 0.62925,0.333579 0.66165,0.263587 0.68625,0.190508 0.70283,0.115211 0.71116,0.0386"
     inkscape:connector-curvature="0" />
  <path
     id="face1-cut"
     style="fill:none;stroke:#0000ff;stroke-width:1;stroke-linecap:round;stroke-linejoin:round;stroke-miterlimit:4;stroke-dasharray:none"
     d="m 229.19021,120.63062 -64.9,0 -0.76895,0.042 -0.75982,0.12535 -0.74167,0.20728 -0.71472,0.28673 -0.67929,0.36278 -0.63579,0.43453 -0.58475,0.50113 -0.52674,0.56176 -0.46253,0.61572 -0.39281,0.66238 -0.31836,0.7012 -0.24021,0.73167 -8.27439,30.7675 -85.000009,0 -8.66178,-31.18241 -0.22749,-0.6749 -0.29911,-0.64635 -0.36724,-0.61023 -0.43106,-0.56695 -0.48983,-0.51702 -0.54284,-0.46104 -0.58953,-0.3996 -0.62925,-0.33362 -0.66163,-0.26359 -0.68626,-0.19051 -0.70282,-0.11522 -0.71116,-0.0386 -15.00001,-1e-5 0,735.47438 235.000019,0 0,-699.47438 -25,0 -8.66178,-31.18241 -0.2275,-0.6749 -0.2991,-0.64635 -0.36724,-0.61023 -0.43106,-0.56694 -0.48983,-0.51703 -0.54284,-0.46103 -0.58949,-0.3997 -0.62928,-0.33352 -0.66165,-0.2636 -0.68624,-0.19052 -0.70283,-0.11521 -0.71116,-0.0386"
     inkscape:connector-curvature="0" />
  <path
     id="face0-interior"
     style="fill:none;stroke:#ff0000;stroke-width:1;stroke-linecap:round;stroke-linejoin:round;stroke-miterlimit:4;stroke-dasharray:none"
     d="m 505.52562,-265 m 0,-15 M 10,-280 m 0,234.999998 m 459.52562,0 m 0,-25 m 31.18241,-8.66178 m 0.6749,-0.22749 m 0.64635,-0.29911 m 0.61022,-0.36724 m 0.56695,-0.43106 m 0.51702,-0.48983 m 0.46104,-0.54284 m 0.39965,-0.58951 m 0.33358,-0.62926 m 0.26359,-0.66164 m 0.19052,-0.68625 m 0.11521,-0.70283 m 0.0386,-0.71116 m 0,-65.318418 m -0.0387,-0.70957 m -0.11567,-0.70115 m -0.19127,-0.6844 m -0.26459,-0.65953 m -0.33477,-0.62683 m -0.40098,-0.58669 m -0.46242,-0.53958 m -0.51838,-0.48607 m -0.56819,-0.4268 m -0.61124,-0.36245 m -0.64705,-0.2938 m -0.67516,-0.22166 M 469.52562,-165 m 0,-85 m 31.18241,-8.66178 m 0.6749,-0.22749 m 0.64635,-0.29912 m 0.61022,-0.36723 m 0.56695,-0.43106 m 0.51702,-0.48983 m 0.46104,-0.54284 m 0.39965,-0.58951 m 0.33358,-0.62926 m 0.26359,-0.66164 m 0.19052,-0.68625 m 0.11521,-0.70283"
     inkscape:connector-curvature="0" />
  <path
     id="face1-interior"
     style="fill:none;stroke:#ff0000;stroke-width:1;stroke-linecap:round;stroke-linejoin:round;stroke-miterlimit:4;stroke-dasharray:none"
     d="m 10,4.9999983 m 0,64.8999997 m 0.04195,0.76895 m 0.125357,0.75982 m 0.207275,0.74167 m 0.286732,0.71472 m 0.362786,0.67929 m 0.434532,0.63579 m 0.501121,0.58474 m 0.561761,0.52675 m 0.615732,0.46251 m 0.662395,0.39278 m 0.701194,0.31838 m 0.731669,0.24022 M 46,84.999998 M 46,170 m -31.18241,8.66178 m -0.674901,0.22749 m -0.646351,0.29911 m -0.610226,0.36724 m -0.566947,0.43106 m -0.517023,0.48983 m -0.461039,0.54284 m -0.399649,0.58951 m -0.333576,0.62926 m -0.263593,0.66164 m -0.190518,0.68625 m -0.115212,0.70283 M 10,185 m 0,15 m 735.47438,0 m 0,-235.000002 m -699.47438,0 m 0,25 m -31.18241,8.6617803 m -0.674901,0.22749 m -0.646351,0.29911001 m -0.610226,0.36724 m -0.566947,0.43106 m -0.517023,0.48983 M 11.341103,1.0193483 m -0.399649,0.58951 m -0.333576,0.62926 m -0.263593,0.66164 m -0.190518,0.68625 m -0.115212,0.70283"
     inkscape:connector-curvature="0" />
  <path
     id="path4200"
     style="fill:none;stroke:#00ff00;stroke-width:1;stroke-linecap:round;stroke-linejoin:round;stroke-miterlimit:4;stroke-dasharray:none"
     d="m 505.52562,-265 m 0,-15 M 10,-280 m 0,234.999998 m 459.52562,0 m 0,-25 m 31.18241,-8.66178 m 0.6749,-0.22749 m 0.64635,-0.29911 m 0.61022,-0.36724 m 0.56695,-0.43106 m 0.51702,-0.48983 m 0.46104,-0.54284 m 0.39965,-0.58951 m 0.33358,-0.62926 m 0.26359,-0.66164 m 0.19052,-0.68625 m 0.11521,-0.70283 m 0.0386,-0.71116 m 0,-65.318418 m -0.0387,-0.70957 m -0.11567,-0.70115 m -0.19127,-0.6844 m -0.26459,-0.65953 m -0.33477,-0.62683 m -0.40098,-0.58669 m -0.46242,-0.53958 m -0.51838,-0.48607 m -0.56819,-0.4268 m -0.61124,-0.36245 m -0.64705,-0.2938 m -0.67516,-0.22166 M 469.52562,-165 m 0,-85 m 31.18241,-8.66178 m 0.6749,-0.22749 m 0.64635,-0.29912 m 0.61022,-0.36723 m 0.56695,-0.43106 m 0.51702,-0.48983 m 0.46104,-0.54284 m 0.39965,-0.58951 m 0.33358,-0.62926 m 0.26359,-0.66164 m 0.19052,-0.68625 m 0.11521,-0.70283"
     inkscape:connector-curvature="0" />
  <path
     id="path4202"
     style="fill:none;stroke:#00ff00;stroke-width:1;stroke-linecap:round;stroke-linejoin:round;stroke-miterlimit:4;stroke-dasharray:none"
     d="m 10,4.9999983 m 0,64.8999997 m 0.04195,0.76895 m 0.125357,0.75982 m 0.207275,0.74167 m 0.286732,0.71472 m 0.362786,0.67929 m 0.434532,0.63579 m 0.501121,0.58474 m 0.561761,0.52675 m 0.615732,0.46251 m 0.662395,0.39278 m 0.701194,0.31838 m 0.731669,0.24022 M 46,84.999998 M 46,170 m -31.18241,8.66178 m -0.674901,0.22749 m -0.646351,0.29911 m -0.610226,0.36724 m -0.566947,0.43106 m -0.517023,0.48983 m -0.461039,0.54284 m -0.399649,0.58951 m -0.333576,0.62926 m -0.263593,0.66164 m -0.190518,0.68625 m -0.115212,0.70283 M 10,185 m 0,15 m 735.47438,0 m 0,-235.000002 m -699.47438,0 m 0,25 m -31.18241,8.6617803 m -0.674901,0.22749 m -0.646351,0.29911001 m -0.610226,0.36724 m -0.566947,0.43106 m -0.517023,0.48983 M 11.341103,1.0193483 m -0.399649,0.58951 m -0.333576,0.62926 m -0.263593,0.66164 m -0.190518,0.68625 m -0.115212,0.70283"
     inkscape:connector-curvature="0" />
</svg>
